<?xml version="1.0" encoding="UTF-8"?>
<svg width="33px" height="35px" viewBox="0 0 33 35" version="1.1" xmlns="http://www.w3.org/2000/svg" xmlns:xlink="http://www.w3.org/1999/xlink">
    <!-- Generator: Sketch 61.2 (89653) - https://sketch.com -->
    <title>iso-black</title>
    <desc>Created with Sketch.</desc>
    <g id="show-page-" stroke="none" stroke-width="1" fill="none" fill-rule="evenodd">
        <g id="shows-Mobile" transform="translate(-143.000000, -30.000000)" fill="#000000" fill-rule="nonzero">
            <g id="iso-black" transform="translate(143.000000, 30.000000)">
                <path d="M0,6.88068182 L0,0.119318182 C0,0.0397727273 0.0417721519,0 0.125316456,0 L32.8746835,0 C32.9582278,0 33,0.0397727273 33,0.119318182 L33,6.88068182 C33,6.92045455 32.9582278,7 32.8746835,7 L0.125316456,7 C0.0417721519,6.96022727 0,6.92045455 0,6.88068182" id="Path"></path>
                <path d="M20,13.4944332 C20,16.3456384 16.5,20 16.5,20 C16.5,20 13,16.3456384 13,13.4944332 C13,11.6471735 14.5555556,10.0007029 16.5,10.0007029 C18.4444444,9.96054509 20,11.6471735 20,13.4944332" id="Path"></path>
                <path d="M21,30.1040462 C21,26.1387283 16.5,21 16.5,21 C16.5,21 12,26.1387283 12,30.1040462 C12,32.6936416 14.0089286,35 16.5,35 C18.9910714,35 21,32.6936416 21,30.1040462" id="Path"></path>
            </g>
        </g>
    </g>
</svg>