<?xml version="1.0" encoding="UTF-8"?>
<svg version="1.1" xmlns="http://www.w3.org/2000/svg" width="370" height="370">
<path d="M0 0 C6.59661481 1.8977834 13.03737354 4.03702813 19.44921875 6.484375 C20.32693939 6.81631363 21.20466003 7.14825226 22.10897827 7.49024963 C24.96982334 8.57334141 27.82870369 9.66151328 30.6875 10.75 C32.71339039 11.51865756 34.73935178 12.28712799 36.76538086 13.05541992 C54.09009604 19.63104963 71.38755546 26.27718434 88.67626953 32.94677734 C98.7820652 36.84500746 108.89089653 40.73535751 119 44.625 C120.07977112 45.04049103 121.15954224 45.45598206 122.27203369 45.88406372 C155.48665234 58.66264122 188.74226403 71.33415328 222 84 C222 84.33 222 84.66 222 85 C138.18 85 54.36 85 -32 85 C-23.95671671 62.01919059 -23.95671671 62.01919059 -20.1171875 52.12890625 C-19.6950296 51.03384262 -19.2728717 49.93877899 -18.83792114 48.81053162 C-17.51984572 45.3933934 -16.19754912 41.97790886 -14.875 38.5625 C-13.98538954 36.25857455 -13.09606532 33.95453855 -12.20703125 31.65039062 C-10.53117866 27.30815318 -8.85383239 22.96649896 -7.17480469 18.62548828 C-4.77496742 12.42015041 -2.38413766 6.21138807 0 0 Z " fill="#000000" transform="translate(110,23)"/>
<path d="M0 0 C82.5 0 165 0 250 0 C248.87506451 6.74961294 248.87506451 6.74961294 247.53222656 10.18066406 C247.08409355 11.33846375 247.08409355 11.33846375 246.62690735 12.51965332 C246.30143417 13.34332397 245.975961 14.16699463 245.640625 15.015625 C245.29948166 15.89279175 244.95833832 16.7699585 244.6068573 17.67370605 C243.49307793 20.53451853 242.37150433 23.39220818 241.25 26.25 C240.48119117 28.22142202 239.7130485 30.19310396 238.94555664 32.16503906 C237.77685261 35.16774266 236.60779854 38.17030279 235.43666077 41.17205811 C231.72729956 50.68170072 228.0748813 60.21263906 224.4375 69.75 C223.87863399 71.21388752 223.31971638 72.67775535 222.76074219 74.14160156 C221.50627135 77.42739522 220.2527808 80.71356154 219 84 C209.48752092 81.41706252 200.3349613 77.85460554 191.125 74.375 C189.34929716 73.70658901 187.57358069 73.03821419 185.79785156 72.36987305 C168.41792131 65.81757899 151.09750043 59.11207946 133.77909851 52.39929199 C122.42203331 47.99853513 111.05543828 43.62257942 99.6875 39.25 C98.61804138 38.8385675 97.54858276 38.42713501 96.44671631 38.00323486 C83.672155 33.08968384 70.89225665 28.19023751 58.10546875 23.30859375 C57.48665266 23.07234661 56.86783657 22.83609947 56.23026848 22.59269333 C49.6525224 20.08171767 43.07406606 17.57261153 36.49487305 15.06542969 C24.31234628 10.42140435 12.14262816 5.74744248 0 1 C0 0.67 0 0.34 0 0 Z " fill="#000000" transform="translate(37,263)"/>
<path d="M0 0 C1.12532135 -0.01253311 2.2506427 -0.02506622 3.4100647 -0.03797913 C4.61842987 -0.02472092 5.82679504 -0.01146271 7.07177734 0.00219727 C8.3259848 -0.00021469 9.58019226 -0.00262665 10.87240601 -0.00511169 C13.52778823 -0.00413221 16.18091886 0.00667977 18.8359375 0.03417969 C21.54011376 0.06134308 24.24298772 0.06853081 26.94726562 0.0546875 C30.86415147 0.03578038 34.77991003 0.04542741 38.69677734 0.06469727 C40.49110703 0.05725746 40.49110703 0.05725746 42.32168579 0.04966736 C53.11240311 0.19901212 63.51232749 2.6732726 71.28271484 10.63110352 C78.12411066 19.75814748 81.4437456 29.23042647 80.28271484 40.63110352 C78.49972165 50.541574 73.53264431 58.81865321 65.28271484 64.63110352 C64.62271484 64.63110352 63.96271484 64.63110352 63.28271484 64.63110352 C64.02521484 65.35297852 64.76771484 66.07485352 65.53271484 66.81860352 C73.85105152 75.3259933 75.839526 82.48831489 76.92333984 94.01977539 C77.607346 99.87136466 78.45518545 102.80551418 83.28271484 106.63110352 C85.13529603 109.24155882 85.28776531 110.38868115 85.22021484 113.63110352 C84.02194285 117.46557389 82.74102118 118.63297096 79.28271484 120.63110352 C75.25412216 121.43682205 72.71371885 120.56829089 69.22021484 118.63110352 C63.2897259 114.60562823 60.1106428 108.94756267 58.60693359 101.96704102 C58.19590331 99.00564214 58.02616932 96.05264524 57.84521484 93.06860352 C57.47558544 87.83319682 57.1228293 84.08061616 54.28271484 79.63110352 C48.7453568 75.70704074 44.53947648 75.031528 37.84912109 75.02172852 C36.97118393 75.00519226 36.09324677 74.98865601 35.18870544 74.97161865 C32.40746921 74.92335626 29.62677885 74.90181652 26.84521484 74.88110352 C24.95000541 74.85292557 23.05482116 74.82299561 21.15966797 74.79125977 C16.53406191 74.71760337 11.90875503 74.66789616 7.28271484 74.63110352 C7.30366211 75.85216797 7.32460937 77.07323242 7.34619141 78.33129883 C7.41861643 82.86356876 7.46452373 87.39578759 7.50244141 91.9284668 C7.52255117 93.88981733 7.54984302 95.85110795 7.58447266 97.81225586 C7.63301905 100.63223046 7.6556897 103.45141216 7.67333984 106.27172852 C7.69398499 107.14790833 7.71463013 108.02408813 7.73590088 108.92681885 C7.73814402 115.01905401 7.73814402 115.01905401 5.40283203 118.1574707 C2.82693707 119.94790161 1.43610313 120.5577689 -1.71728516 120.63110352 C-5.3219123 119.34810063 -8.00022779 118.34816088 -10.71728516 115.63110352 C-10.97734737 113.68106365 -10.97734737 113.68106365 -10.99143982 111.24821472 C-11.00141495 110.32713425 -11.01139008 109.40605377 -11.02166748 108.45706177 C-11.02233215 107.44352631 -11.02299683 106.42999084 -11.02368164 105.38574219 C-11.03200516 104.32058884 -11.04032867 103.25543549 -11.04890442 102.15800476 C-11.07308463 98.6216572 -11.08178674 95.08549384 -11.08837891 91.54907227 C-11.09733971 89.0976811 -11.10646144 86.64629051 -11.11573792 84.19490051 C-11.1322527 79.04919096 -11.13993246 73.90354667 -11.14282227 68.7578125 C-11.14820601 62.15987767 -11.18587604 55.56255511 -11.23156643 48.96479321 C-11.26129174 43.89905045 -11.26854486 38.83345584 -11.26954842 33.76763344 C-11.27376033 31.33511872 -11.28623322 28.90260394 -11.30706596 26.47017479 C-11.33388272 23.06787367 -11.32918252 19.66700082 -11.31665039 16.26464844 C-11.33148468 15.25718567 -11.34631897 14.2497229 -11.36160278 13.21173096 C-11.31363257 8.64476421 -11.20391472 6.32867276 -8.53715515 2.50595093 C-5.35919995 0.39302335 -3.78158723 0.00368832 0 0 Z M7.28271484 17.63110352 C7.28271484 31.16110352 7.28271484 44.69110352 7.28271484 58.63110352 C13.92396484 58.71360352 20.56521484 58.79610352 27.40771484 58.88110352 C30.53651123 58.93572754 30.53651123 58.93572754 33.72851562 58.99145508 C35.39500908 59.00314533 37.06151402 59.01333636 38.72802734 59.02172852 C40.00987915 59.05242432 40.00987915 59.05242432 41.31762695 59.08374023 C46.82271352 59.08693994 49.89837428 58.27916219 54.28271484 54.63110352 C59.42529551 49.13902707 61.06965049 41.99150846 61.28271484 34.63110352 C60.40622548 29.14064182 58.30199537 24.53554745 54.28271484 20.63110352 C49.04383381 17.30052091 44.72707254 17.23039289 38.72802734 17.33813477 C37.9280835 17.34115601 37.12813965 17.34417725 36.30395508 17.34729004 C33.33840893 17.36289226 30.37304785 17.40477586 27.40771484 17.44360352 C17.44583984 17.53641602 17.44583984 17.53641602 7.28271484 17.63110352 Z " fill="#000000" transform="translate(207.71728515625,124.368896484375)"/>
<path d="M0 0 C2.792719 3.01465693 3 3.68313159 3 8 C2.45623458 11.13395982 2.00157706 11.99819765 -0.1875 14.5 C-3.68273349 16.36412453 -5.06264738 16.5833115 -9 16 C-11.81187101 15.07651365 -14.56447456 14.06171858 -17.31640625 12.97265625 C-27.27048629 9.36484558 -39.34122568 9.64347418 -49 14 C-60.33167647 19.88099665 -67.40042201 27.23089913 -72.08984375 39.10546875 C-75.70158585 50.59173869 -74.62799794 61.98564624 -70 73 C-68.54460416 75.52244417 -67.0087922 77.8616206 -65.26953125 80.1953125 C-64 82 -64 82 -63 85 C-61.15762607 86.05700974 -61.15762607 86.05700974 -59 87 C-57.61611363 87.96656655 -56.24157411 88.9466077 -54.875 89.9375 C-47.19599662 95.01134876 -40.19753585 96.25571173 -31.125 96.375 C-30.40642822 96.38901855 -29.68785645 96.40303711 -28.94750977 96.41748047 C-22.01008467 96.35714831 -17.16280055 94.79070014 -10 93 C-10 84.75 -10 76.5 -10 68 C-16.68607984 68.07881957 -16.68607984 68.07881957 -23.37182617 68.18017578 C-24.21205322 68.1851709 -25.05228027 68.19016602 -25.91796875 68.1953125 C-26.77156982 68.20578613 -27.6251709 68.21625977 -28.50463867 68.22705078 C-31.37188175 67.9661628 -33.43633645 67.30583815 -36 66 C-38.11212504 62.83181244 -38.33156464 60.86780748 -38.55859375 57.1328125 C-37.64888719 53.65938744 -35.76172557 52.22644603 -33 50 C-30.05494929 49.53656179 -27.70784474 49.3649954 -24.77734375 49.44140625 C-23.99484756 49.44373764 -23.21235138 49.44606903 -22.40614319 49.44847107 C-20.75787396 49.45818328 -19.10963685 49.47991245 -17.46166992 49.51293945 C-14.94204175 49.56241083 -12.4243673 49.57442609 -9.90429688 49.58007812 C-8.29945844 49.59416329 -6.69463691 49.61036741 -5.08984375 49.62890625 C-4.33871811 49.63426895 -3.58759247 49.63963165 -2.81370544 49.64515686 C4.09872649 49.80206552 4.09872649 49.80206552 7 52 C8.73767459 54.88926134 9.25680134 57.06186831 9.29052734 60.41381836 C9.30328705 61.27829086 9.31604675 62.14276337 9.32919312 63.03343201 C9.33141876 63.95954788 9.33364441 64.88566376 9.3359375 65.83984375 C9.3459227 67.27850548 9.3459227 67.27850548 9.35610962 68.74623108 C9.36622551 70.77277714 9.37092697 72.79935645 9.37060547 74.82592773 C9.37497941 77.92292211 9.41131252 81.01849199 9.44921875 84.11523438 C9.45508699 86.08593263 9.45905634 88.05663765 9.4609375 90.02734375 C9.47530853 90.95143539 9.48967957 91.87552704 9.50448608 92.82762146 C9.47463475 97.03673347 9.38944231 99.36901972 7.13769531 103.01733398 C0.68871871 108.99861985 -8.57143249 111.96954786 -17 114 C-17.72574219 114.18304688 -18.45148438 114.36609375 -19.19921875 114.5546875 C-35.14560758 117.0900966 -53.39761953 115.19021592 -67 106 C-79.79898573 95.65855148 -91.08397871 82.82969102 -93.75390625 65.984375 C-95.29980513 47.23728376 -93.38915782 30.4453602 -81.671875 14.9140625 C-62.62722812 -6.94535924 -25.66636553 -17.80005311 0 0 Z " fill="#000000" transform="translate(166,131)"/>
</svg>
